<svg xmlns="http://www.w3.org/2000/svg" viewBox="0 0 2233 594"><g fill="none" stroke="gray" stroke-width="2"><path d="M247.75 274.57a.32.32 0 0 1 .32-.32h62.94a.32.32 0 0 0 .32-.32l-.32-35.36a.32.32 0 0 0-.32-.32H139.32a.32.32 0 0 0-.32.32v35.36a.32.32 0 0 0 .32.32h62.61a.32.32 0 0 1 .32.32v104.61a.32.32 0 0 0 .32.32h44.86a.32.32 0 0 0 .32-.32V274.57m427.61-36.32a.31.31 0 0 0-.28.18l-42.05 90.89a.31.31 0 0 1-.56 0l-41.84-90.88a.31.31 0 0 0-.28-.18l-78.04-.02a.31.31 0 0 0-.31.31v140.64a.31.31 0 0 0 .31.31h42.05a.31.31 0 0 0 .31-.31l-1.03-105.13a.31.31 0 0 1 .31-.31h7.14a.31.31 0 0 1 .28.17l53.34 105.41a.31.31 0 0 0 .28.17h35.73a.31.31 0 0 0 .28-.17l53.33-105.41a.31.31 0 0 1 .28-.17h6.73a.31.31 0 0 1 .31.31l-1.05 105.13a.31.31 0 0 0 .31.31l42.03.01a.31.31 0 0 0 .31-.31V238.55a.31.31 0 0 0-.31-.31l-77.58.01m140.39 85.36a.36.36 0 0 1 .36-.36h108.28a.36.36 0 0 0 .36-.36v-30.53a.36.36 0 0 0-.36-.36H816.11a.36.36 0 0 1-.36-.36v-19.78a.36.36 0 0 1 .36-.36h114.03a.36.36 0 0 0 .36-.36v-32.53a.36.36 0 0 0-.36-.36H773.36a.36.36 0 0 0-.36.36v140.53a.36.36 0 0 0 .36.36h157.53a.36.36 0 0 0 .36-.36v-33.08a.36.36 0 0 0-.36-.36l-114.78-.1a.36.36 0 0 1-.36-.36v-21.63m228-85.1a.27.27 0 0 0-.27-.27h-44.96a.27.27 0 0 0-.27.27v140.72a.27.27 0 0 0 .27.27h44.96a.27.27 0 0 0 .27-.27V238.51m69.11 35.24a.31.31 0 0 1 .28.17l53.31 105.41a.31.31 0 0 0 .28.17h35.74a.31.31 0 0 0 .28-.17l53.34-105.41a.31.31 0 0 1 .28-.17h6.71a.31.31 0 0 1 .31.31l-1.02 105.13a.31.31 0 0 0 .31.31h42.01a.31.31 0 0 0 .31-.31V238.56a.31.31 0 0 0-.31-.31l-77.58-.01a.31.31 0 0 0-.28.18l-42.05 90.91a.31.31 0 0 1-.56 0l-41.85-90.9a.31.31 0 0 0-.28-.18h-78.03a.31.31 0 0 0-.31.31v140.62a.31.31 0 0 0 .31.31l42.07.02a.31.31 0 0 0 .31-.31l-1.05-105.14a.31.31 0 0 1 .31-.31h7.16m211.89-34.89v140.23a.41.41 0 0 0 .41.41h42.6a.51.5-90 0 0 .5-.51l-.04-33.49a.45.45 0 0 1 .45-.45q33.32-.01 66.64-.15c27.14-.11 54.74.1 58.94-34.15q2.38-19.41.11-37.86c-2.61-21.15-11.04-29.77-32.53-33.13q-9.36-1.46-19.83-1.48-57.93-.07-116.65-.02a.61.6-.5 0 0-.6.6m224.24 116.79q.1.05.51.05 46.27-.23 92.55.13a.75.75 0 0 1 .66.42l11.58 22.78a.84.83-13.1 0 0 .75.46l48.09.02a.4.39-13.8 0 0 .36-.58l-73.78-140.22a.88.86 75.3 0 0-.76-.46l-66.49-.01a.84.84 0 0 0-.74.44l-74.71 140.36a.32.32 0 0 0 .28.47l48.42-.01a.86.86 0 0 0 .76-.46l11.72-23.1a.62.54-60.7 0 1 .8-.29m207.11-12.15a.35.35 0 0 1-.35-.35V238.61a.35.35 0 0 0-.35-.35l-44.8-.04a.35.35 0 0 0-.35.35v140.58a.35.35 0 0 0 .35.35h145.8a.35.35 0 0 0 .35-.35v-35.3a.35.35 0 0 0-.35-.35h-100.3m167.84 12.08c.95-.25 2.22.05 2.83.05l90.29-.02a.85.82-13.1 0 1 .75.45l11.63 22.96a.87.86-13.5 0 0 .77.47l48.46.02a.17.16-13.8 0 0 .15-.24l-73.96-140.57a.85.85 0 0 0-.75-.45h-66.42a.97.96 13.6 0 0-.86.52l-74.63 140.21a.36.35-76.1 0 0 .31.52h48.36a.83.82-76.6 0 0 .74-.46l11.59-22.85a1.17 1.16 5.1 0 1 .74-.61m-1479.41.59 11.54 22.86a.86.85 76.3 0 0 .76.47h48.15a.37.37 0 0 0 .33-.54l-73.82-140.24a.87.86-13.5 0 0-.77-.47h-66.45a.89.88-75.9 0 0-.78.47L288.93 378.8a.48.48 0 0 0 .42.7h48.17a.88.87 12.9 0 0 .79-.49l11.56-22.9a.87.87 0 0 1 .78-.48q43.88.04 87.68.11c1.44 0 3.68-.51 5.56-.07a.96.94-6.7 0 1 .64.5" vector-effect="non-scaling-stroke"/><path d="M1447.56 276.44q-4.09-2.7-9.75-2.76-34.5-.37-69.06-.13a.5.5 0 0 0-.5.5l-.01 34.87a.46.46 0 0 0 .45.46q48.46.6 72.56-.25 4.22-.14 7.2-3.17c5.09-5.17 5.54-25.28-.89-29.52m174.15 48.11c1.38.01 3.27.38 4.89.18a.46.45-17.2 0 0 .35-.66l-26.94-52.53a1.03 1.03 0 0 0-.91-.55l-7.33.03a.87.86 13.5 0 0-.77.47l-27.03 52.69a.47.46 13.4 0 0 .42.68q28.69-.48 57.32-.31m365.78 0c3.64.01 9.42.47 14.27-.07a.37.36 73.1 0 0 .28-.53l-26.92-52.5a.83.83 0 0 0-.74-.45h-7.48a.83.82-76.3 0 0-.73.45l-27.11 52.84a.4.39 13.1 0 0 .36.57q24.06-.41 48.07-.31M393.25 271a.34.34 0 0 0-.3.18l-27.24 53.07a.34.34 0 0 0 .31.5h62.52a.34.34 0 0 0 .31-.5l-27.22-53.07a.34.34 0 0 0-.3-.18h-8.08" vector-effect="non-scaling-stroke"/></g><path d="M0 0h2233v594H0V0Zm247.75 274.57a.32.32 0 0 1 .32-.32h62.94a.32.32 0 0 0 .32-.32l-.32-35.36a.32.32 0 0 0-.32-.32H139.32a.32.32 0 0 0-.32.32v35.36a.32.32 0 0 0 .32.32h62.61a.32.32 0 0 1 .32.32v104.61a.32.32 0 0 0 .32.32h44.86a.32.32 0 0 0 .32-.32V274.57Zm427.61-36.32a.31.31 0 0 0-.28.18l-42.05 90.89a.31.31 0 0 1-.56 0l-41.84-90.88a.31.31 0 0 0-.28-.18l-78.04-.02a.31.31 0 0 0-.31.31v140.64a.31.31 0 0 0 .31.31h42.05a.31.31 0 0 0 .31-.31l-1.03-105.13a.31.31 0 0 1 .31-.31h7.14a.31.31 0 0 1 .28.17l53.34 105.41a.31.31 0 0 0 .28.17h35.73a.31.31 0 0 0 .28-.17l53.33-105.41a.31.31 0 0 1 .28-.17h6.73a.31.31 0 0 1 .31.31l-1.05 105.13a.31.31 0 0 0 .31.31l42.03.01a.31.31 0 0 0 .31-.31V238.55a.31.31 0 0 0-.31-.31l-77.58.01Zm140.39 85.36a.36.36 0 0 1 .36-.36h108.28a.36.36 0 0 0 .36-.36v-30.53a.36.36 0 0 0-.36-.36H816.11a.36.36 0 0 1-.36-.36v-19.78a.36.36 0 0 1 .36-.36h114.03a.36.36 0 0 0 .36-.36v-32.53a.36.36 0 0 0-.36-.36H773.36a.36.36 0 0 0-.36.36v140.53a.36.36 0 0 0 .36.36h157.53a.36.36 0 0 0 .36-.36v-33.08a.36.36 0 0 0-.36-.36l-114.78-.1a.36.36 0 0 1-.36-.36v-21.63Zm228-85.1a.27.27 0 0 0-.27-.27h-44.96a.27.27 0 0 0-.27.27v140.72a.27.27 0 0 0 .27.27h44.96a.27.27 0 0 0 .27-.27V238.51Zm69.11 35.24a.31.31 0 0 1 .28.17l53.31 105.41a.31.31 0 0 0 .28.17h35.74a.31.31 0 0 0 .28-.17l53.34-105.41a.31.31 0 0 1 .28-.17h6.71a.31.31 0 0 1 .31.31l-1.02 105.13a.31.31 0 0 0 .31.31h42.01a.31.31 0 0 0 .31-.31V238.56a.31.31 0 0 0-.31-.31l-77.58-.01a.31.31 0 0 0-.28.18l-42.05 90.91a.31.31 0 0 1-.56 0l-41.85-90.9a.31.31 0 0 0-.28-.18h-78.03a.31.31 0 0 0-.31.31v140.62a.31.31 0 0 0 .31.31l42.07.02a.31.31 0 0 0 .31-.31l-1.05-105.14a.31.31 0 0 1 .31-.31h7.16Zm211.89-34.89v140.23a.41.41 0 0 0 .41.41h42.6a.51.5-90 0 0 .5-.51l-.04-33.49a.45.45 0 0 1 .45-.45q33.32-.01 66.64-.15c27.14-.11 54.74.1 58.94-34.15q2.38-19.41.11-37.86c-2.61-21.15-11.04-29.77-32.53-33.13q-9.36-1.46-19.83-1.48-57.93-.07-116.65-.02a.61.6-.5 0 0-.6.6Zm224.24 116.79q.1.05.51.05 46.27-.23 92.55.13a.75.75 0 0 1 .66.42l11.58 22.78a.84.83-13.1 0 0 .75.46l48.09.02a.4.39-13.8 0 0 .36-.58l-73.78-140.22a.88.86 75.3 0 0-.76-.46l-66.49-.01a.84.84 0 0 0-.74.44l-74.71 140.36a.32.32 0 0 0 .28.47l48.42-.01a.86.86 0 0 0 .76-.46l11.72-23.1a.62.54-60.7 0 1 .8-.29Zm207.11-12.15a.35.35 0 0 1-.35-.35V238.61a.35.35 0 0 0-.35-.35l-44.8-.04a.35.35 0 0 0-.35.35v140.58a.35.35 0 0 0 .35.35h145.8a.35.35 0 0 0 .35-.35v-35.3a.35.35 0 0 0-.35-.35h-100.3Zm167.84 12.08c.95-.25 2.22.05 2.83.05l90.29-.02a.85.82-13.1 0 1 .75.45l11.63 22.96a.87.86-13.5 0 0 .77.47l48.46.02a.17.16-13.8 0 0 .15-.24l-73.96-140.57a.85.85 0 0 0-.75-.45h-66.42a.97.96 13.6 0 0-.86.52l-74.63 140.21a.36.35-76.1 0 0 .31.52h48.36a.83.82-76.6 0 0 .74-.46l11.59-22.85a1.17 1.16 5.1 0 1 .74-.61Zm-1479.41.59 11.54 22.86a.86.85 76.3 0 0 .76.47h48.15a.37.37 0 0 0 .33-.54l-73.82-140.24a.87.86-13.5 0 0-.77-.47h-66.45a.89.88-75.9 0 0-.78.47L288.93 378.8a.48.48 0 0 0 .42.7h48.17a.88.87 12.9 0 0 .79-.49l11.56-22.9a.87.87 0 0 1 .78-.48q43.88.04 87.68.11c1.44 0 3.68-.51 5.56-.07a.96.94-6.7 0 1 .64.5Z"/><path fill="#fff" d="M247.75 274.57v104.61a.32.32 0 0 1-.32.32h-44.86a.32.32 0 0 1-.32-.32V274.57a.32.32 0 0 0-.32-.32h-62.61a.32.32 0 0 1-.32-.32v-35.36a.32.32 0 0 1 .32-.32h171.37a.32.32 0 0 1 .32.32l.32 35.36a.32.32 0 0 1-.32.32h-62.94a.32.32 0 0 0-.32.32Zm427.61-36.32 77.58-.01a.31.31 0 0 1 .31.31V379.2a.31.31 0 0 1-.31.31l-42.03-.01a.31.31 0 0 1-.31-.31l1.05-105.13a.31.31 0 0 0-.31-.31h-6.73a.31.31 0 0 0-.28.17L651 379.33a.31.31 0 0 1-.28.17h-35.73a.31.31 0 0 1-.28-.17l-53.34-105.41a.31.31 0 0 0-.28-.17h-7.14a.31.31 0 0 0-.31.31l1.03 105.13a.31.31 0 0 1-.31.31h-42.05a.31.31 0 0 1-.31-.31V238.55a.31.31 0 0 1 .31-.31l78.04.02a.31.31 0 0 1 .28.18l41.84 90.88a.31.31 0 0 0 .56 0l42.05-90.89a.31.31 0 0 1 .28-.18Zm140.39 85.36v21.63a.36.36 0 0 0 .36.36l114.78.1a.36.36 0 0 1 .36.36v33.08a.36.36 0 0 1-.36.36H773.36a.36.36 0 0 1-.36-.36V238.61a.36.36 0 0 1 .36-.36h156.78a.36.36 0 0 1 .36.36v32.53a.36.36 0 0 1-.36.36H816.11a.36.36 0 0 0-.36.36v19.78a.36.36 0 0 0 .36.36h108.28a.36.36 0 0 1 .36.36v30.53a.36.36 0 0 1-.36.36H816.11a.36.36 0 0 0-.36.36Z"/><rect width="45.5" height="141.26" x="998.25" y="238.24" fill="#fff" rx=".27"/><path fill="#fff" d="M1112.86 273.75h-7.16a.31.31 0 0 0-.31.31l1.05 105.14a.31.31 0 0 1-.31.31l-42.07-.02a.31.31 0 0 1-.31-.31V238.56a.31.31 0 0 1 .31-.31h78.03a.31.31 0 0 1 .28.18l41.85 90.9a.31.31 0 0 0 .56 0l42.05-90.91a.31.31 0 0 1 .28-.18l77.58.01a.31.31 0 0 1 .31.31v140.63a.31.31 0 0 1-.31.31h-42.01a.31.31 0 0 1-.31-.31l1.02-105.13a.31.31 0 0 0-.31-.31h-6.71a.31.31 0 0 0-.28.17l-53.34 105.41a.31.31 0 0 1-.28.17h-35.74a.31.31 0 0 1-.28-.17l-53.31-105.41a.31.31 0 0 0-.28-.17Zm211.89-34.89a.61.6-.5 0 1 .6-.6q58.72-.05 116.65.02 10.47.02 19.83 1.48c21.49 3.36 29.92 11.98 32.53 33.13q2.27 18.45-.11 37.86c-4.2 34.25-31.8 34.04-58.94 34.15q-33.32.14-66.64.15a.45.45 0 0 0-.45.45l.04 33.49a.51.5-90 0 1-.5.51h-42.6a.41.41 0 0 1-.41-.41V238.86Zm122.81 37.58q-4.09-2.7-9.75-2.76-34.5-.37-69.06-.13a.5.5 0 0 0-.5.5l-.01 34.87a.46.46 0 0 0 .45.46q48.46.6 72.56-.25 4.22-.14 7.2-3.17c5.09-5.17 5.54-25.28-.89-29.52Zm101.43 79.21a.62.54-60.7 0 0-.8.29l-11.72 23.1a.86.86 0 0 1-.76.46l-48.42.01a.32.32 0 0 1-.28-.47l74.71-140.36a.84.84 0 0 1 .74-.44l66.49.01a.88.86 75.3 0 1 .76.46l73.78 140.22a.4.39-13.8 0 1-.36.58l-48.09-.02a.84.83-13.1 0 1-.75-.46l-11.58-22.78a.75.75 0 0 0-.66-.42q-46.28-.36-92.55-.13-.41 0-.51-.05Zm72.72-31.1c1.38.01 3.27.38 4.89.18a.46.45-17.2 0 0 .35-.66l-26.94-52.53a1.03 1.03 0 0 0-.91-.55l-7.33.03a.87.86 13.5 0 0-.77.47l-27.03 52.69a.47.46 13.4 0 0 .42.68q28.69-.48 57.32-.31Zm134.39 18.95h100.3a.35.35 0 0 1 .35.35v35.3a.35.35 0 0 1-.35.35h-145.8a.35.35 0 0 1-.35-.35V238.57a.35.35 0 0 1 .35-.35l44.8.04a.35.35 0 0 1 .35.35v104.54a.35.35 0 0 0 .35.35Zm167.1 12.69-11.59 22.85a.83.82-76.6 0 1-.74.46h-48.36a.36.35-76.1 0 1-.31-.52l74.63-140.21a.97.96 13.6 0 1 .86-.52h66.42a.85.85 0 0 1 .75.45l73.96 140.57a.17.16-13.8 0 1-.15.24l-48.46-.02a.87.86-13.5 0 1-.77-.47l-11.63-22.96a.85.82-13.1 0 0-.75-.45l-90.29.02c-.61 0-1.88-.3-2.83-.05a1.17 1.16 5.1 0 0-.74.61Zm64.29-31.64c3.64.01 9.42.47 14.27-.07a.37.36 73.1 0 0 .28-.53l-26.92-52.5a.83.83 0 0 0-.74-.45h-7.48a.83.82-76.3 0 0-.73.45l-27.11 52.84a.4.39 13.1 0 0 .36.57q24.06-.41 48.07-.31Zm-1543.6 31.12c-1.88-.44-4.12.07-5.56.07q-43.8-.07-87.68-.11a.87.87 0 0 0-.78.48l-11.56 22.9a.88.87 12.9 0 1-.79.49h-48.17a.48.48 0 0 1-.42-.7l74.56-140.08a.89.88-75.9 0 1 .78-.47h66.45a.87.86-13.5 0 1 .77.47l73.82 140.24a.37.37 0 0 1-.33.54h-48.15a.86.85 76.3 0 1-.76-.47l-11.54-22.86a.96.94-6.7 0 0-.64-.5ZM393.25 271a.34.34 0 0 0-.3.18l-27.24 53.07a.34.34 0 0 0 .31.5h62.52a.34.34 0 0 0 .31-.5l-27.22-53.07a.34.34 0 0 0-.3-.18h-8.08Z"/><path d="M393.25 271h8.08a.34.34 0 0 1 .3.18l27.22 53.07a.34.34 0 0 1-.31.5h-62.52a.34.34 0 0 1-.31-.5l27.24-53.07a.34.34 0 0 1 .3-.18Zm1228.46 53.55q-28.63-.17-57.32.31a.47.46 13.4 0 1-.42-.68l27.03-52.69a.87.86 13.5 0 1 .77-.47l7.33-.03a1.03 1.03 0 0 1 .91.55l26.94 52.53a.46.45-17.2 0 1-.35.66c-1.62.2-3.51-.17-4.89-.18Zm365.78 0q-24.01-.1-48.07.31a.4.39 13.1 0 1-.36-.57l27.11-52.84a.83.82-76.3 0 1 .73-.45h7.48a.83.83 0 0 1 .74.45l26.92 52.5a.37.36 73.1 0 1-.28.53c-4.85.54-10.63.08-14.27.07Zm-539.93-48.11c6.43 4.24 5.98 24.35.89 29.52q-2.98 3.03-7.2 3.17-24.1.85-72.56.25a.46.46 0 0 1-.45-.46l.01-34.87a.5.5 0 0 1 .5-.5q34.56-.24 69.06.13 5.66.06 9.75 2.76Z"/></svg>